<svg width="300" height="80" viewBox="0 0 101 54" fill="none" xmlns="http://www.w3.org/2000/svg">
    <path d="M5.03605 46.4863C4.26132 46.4863 3.56518 46.3516 2.94763 46.0821C2.34132 45.8014 1.86412 45.4197 1.51605 44.9369C1.16798 44.4428 0.988333 43.8758 0.977105 43.2358H2.61079C2.66693 43.786 2.89149 44.2519 3.28447 44.6337C3.68868 45.0042 4.27254 45.1895 5.03605 45.1895C5.76588 45.1895 6.33851 45.0098 6.75395 44.6505C7.18061 44.28 7.39395 43.8084 7.39395 43.2358C7.39395 42.7867 7.27044 42.4218 7.02342 42.1411C6.7764 41.8604 6.46763 41.647 6.09711 41.5011C5.72658 41.3551 5.22693 41.1979 4.59816 41.0295C3.82342 40.8274 3.20026 40.6253 2.72868 40.4232C2.26833 40.2211 1.86974 39.9067 1.53289 39.48C1.20728 39.0421 1.04447 38.4583 1.04447 37.7284C1.04447 37.0884 1.20728 36.5214 1.53289 36.0274C1.85851 35.5333 2.31325 35.1516 2.89711 34.8821C3.49219 34.6126 4.17149 34.4779 4.935 34.4779C6.03535 34.4779 6.9336 34.753 7.62974 35.3032C8.33711 35.8533 8.7357 36.5832 8.82553 37.4926H7.14132C7.08518 37.0435 6.84939 36.6505 6.43395 36.3137C6.01851 35.9656 5.46833 35.7916 4.78342 35.7916C4.14342 35.7916 3.62132 35.96 3.21711 36.2969C2.81289 36.6225 2.61079 37.0828 2.61079 37.6779C2.61079 38.1046 2.72868 38.4526 2.96447 38.7221C3.21149 38.9916 3.50904 39.1993 3.85711 39.3453C4.2164 39.48 4.71605 39.6372 5.35605 39.8169C6.13079 40.0302 6.75395 40.2435 7.22553 40.4569C7.69711 40.659 8.10132 40.979 8.43816 41.4169C8.775 41.8435 8.94342 42.4274 8.94342 43.1684C8.94342 43.7411 8.79184 44.28 8.48868 44.7853C8.18553 45.2905 7.7364 45.7004 7.14132 46.0147C6.54623 46.3291 5.84447 46.4863 5.03605 46.4863ZM16.2683 46.4863C15.1792 46.4863 14.1855 46.2337 13.2872 45.7284C12.389 45.2119 11.676 44.499 11.1483 43.5895C10.6318 42.6688 10.3736 41.6358 10.3736 40.4905C10.3736 39.3453 10.6318 38.3179 11.1483 37.4084C11.676 36.4877 12.389 35.7747 13.2872 35.2695C14.1855 34.753 15.1792 34.4947 16.2683 34.4947C17.3686 34.4947 18.3679 34.753 19.2662 35.2695C20.1644 35.7747 20.8718 36.4821 21.3883 37.3916C21.9048 38.3011 22.163 39.334 22.163 40.4905C22.163 41.647 21.9048 42.68 21.3883 43.5895C20.8718 44.499 20.1644 45.2119 19.2662 45.7284C18.3679 46.2337 17.3686 46.4863 16.2683 46.4863ZM16.2683 45.1558C17.0879 45.1558 17.8234 44.9649 18.4746 44.5832C19.1371 44.2014 19.6536 43.6569 20.0241 42.9495C20.4058 42.2421 20.5967 41.4225 20.5967 40.4905C20.5967 39.5474 20.4058 38.7277 20.0241 38.0316C19.6536 37.3242 19.1427 36.7797 18.4914 36.3979C17.8402 36.0161 17.0992 35.8253 16.2683 35.8253C15.4374 35.8253 14.6964 36.0161 14.0451 36.3979C13.3939 36.7797 12.8774 37.3242 12.4957 38.0316C12.1251 38.7277 11.9399 39.5474 11.9399 40.4905C11.9399 41.4225 12.1251 42.2421 12.4957 42.9495C12.8774 43.6569 13.3939 44.2014 14.0451 44.5832C14.7076 44.9649 15.4486 45.1558 16.2683 45.1558ZM35.8411 34.7137V46.3684H34.3084V37.6779L30.4347 46.3684H29.3568L25.4663 37.6611V46.3684H23.9337V34.7137H25.5842L29.8958 44.3474L34.2074 34.7137H35.8411ZM43.5097 46.4863C42.4206 46.4863 41.4269 46.2337 40.5287 45.7284C39.6304 45.2119 38.9175 44.499 38.3897 43.5895C37.8732 42.6688 37.615 41.6358 37.615 40.4905C37.615 39.3453 37.8732 38.3179 38.3897 37.4084C38.9175 36.4877 39.6304 35.7747 40.5287 35.2695C41.4269 34.753 42.4206 34.4947 43.5097 34.4947C44.6101 34.4947 45.6094 34.753 46.5076 35.2695C47.4059 35.7747 48.1132 36.4821 48.6297 37.3916C49.1462 38.3011 49.4045 39.334 49.4045 40.4905C49.4045 41.647 49.1462 42.68 48.6297 43.5895C48.1132 44.499 47.4059 45.2119 46.5076 45.7284C45.6094 46.2337 44.6101 46.4863 43.5097 46.4863ZM43.5097 45.1558C44.3294 45.1558 45.0648 44.9649 45.7161 44.5832C46.3785 44.2014 46.895 43.6569 47.2655 42.9495C47.6473 42.2421 47.8382 41.4225 47.8382 40.4905C47.8382 39.5474 47.6473 38.7277 47.2655 38.0316C46.895 37.3242 46.3841 36.7797 45.7329 36.3979C45.0817 36.0161 44.3406 35.8253 43.5097 35.8253C42.6789 35.8253 41.9378 36.0161 41.2866 36.3979C40.6354 36.7797 40.1189 37.3242 39.7371 38.0316C39.3666 38.7277 39.1813 39.5474 39.1813 40.4905C39.1813 41.4225 39.3666 42.2421 39.7371 42.9495C40.1189 43.6569 40.6354 44.2014 41.2866 44.5832C41.949 44.9649 42.6901 45.1558 43.5097 45.1558ZM54.8972 46.4863C54.1225 46.4863 53.4264 46.3516 52.8088 46.0821C52.2025 45.8014 51.7253 45.4197 51.3772 44.9369C51.0292 44.4428 50.8495 43.8758 50.8383 43.2358H52.472C52.5281 43.786 52.7527 44.2519 53.1457 44.6337C53.5499 45.0042 54.1337 45.1895 54.8972 45.1895C55.6271 45.1895 56.1997 45.0098 56.6151 44.6505C57.0418 44.28 57.2551 43.8084 57.2551 43.2358C57.2551 42.7867 57.1316 42.4218 56.8846 42.1411C56.6376 41.8604 56.3288 41.647 55.9583 41.5011C55.5878 41.3551 55.0881 41.1979 54.4593 41.0295C53.6846 40.8274 53.0615 40.6253 52.5899 40.4232C52.1295 40.2211 51.7309 39.9067 51.3941 39.48C51.0685 39.0421 50.9057 38.4583 50.9057 37.7284C50.9057 37.0884 51.0685 36.5214 51.3941 36.0274C51.7197 35.5333 52.1744 35.1516 52.7583 34.8821C53.3534 34.6126 54.0327 34.4779 54.7962 34.4779C55.8965 34.4779 56.7948 34.753 57.4909 35.3032C58.1983 35.8533 58.5969 36.5832 58.6867 37.4926H57.0025C56.9464 37.0435 56.7106 36.6505 56.2951 36.3137C55.8797 35.9656 55.3295 35.7916 54.6446 35.7916C54.0046 35.7916 53.4825 35.96 53.0783 36.2969C52.6741 36.6225 52.472 37.0828 52.472 37.6779C52.472 38.1046 52.5899 38.4526 52.8257 38.7221C53.0727 38.9916 53.3702 39.1993 53.7183 39.3453C54.0776 39.48 54.5772 39.6372 55.2172 39.8169C55.992 40.0302 56.6151 40.2435 57.0867 40.4569C57.5583 40.659 57.9625 40.979 58.2993 41.4169C58.6362 41.8435 58.8046 42.4274 58.8046 43.1684C58.8046 43.7411 58.653 44.28 58.3499 44.7853C58.0467 45.2905 57.5976 45.7004 57.0025 46.0147C56.4074 46.3291 55.7057 46.4863 54.8972 46.4863ZM76.9522 34.7137V46.3684H75.4196V37.6779L71.5459 46.3684H70.468L66.5775 37.6611V46.3684H65.0449V34.7137H66.6954L71.007 44.3474L75.3186 34.7137H76.9522ZM86.2378 43.7579H81.1178L80.1746 46.3684H78.5578L82.802 34.6969H84.5704L88.7978 46.3684H87.1809L86.2378 43.7579ZM85.7999 42.5116L83.6778 36.5832L81.5557 42.5116H85.7999ZM94.117 46.4863C93.3422 46.4863 92.6461 46.3516 92.0286 46.0821C91.4222 45.8014 90.945 45.4197 90.597 44.9369C90.2489 44.4428 90.0693 43.8758 90.058 43.2358H91.6917C91.7479 43.786 91.9724 44.2519 92.3654 44.6337C92.7696 45.0042 93.3535 45.1895 94.117 45.1895C94.8468 45.1895 95.4194 45.0098 95.8349 44.6505C96.2615 44.28 96.4749 43.8084 96.4749 43.2358C96.4749 42.7867 96.3514 42.4218 96.1043 42.1411C95.8573 41.8604 95.5486 41.647 95.178 41.5011C94.8075 41.3551 94.3079 41.1979 93.6791 41.0295C92.9043 40.8274 92.2812 40.6253 91.8096 40.4232C91.3493 40.2211 90.9507 39.9067 90.6138 39.48C90.2882 39.0421 90.1254 38.4583 90.1254 37.7284C90.1254 37.0884 90.2882 36.5214 90.6138 36.0274C90.9394 35.5333 91.3942 35.1516 91.978 34.8821C92.5731 34.6126 93.2524 34.4779 94.0159 34.4779C95.1163 34.4779 96.0145 34.753 96.7107 35.3032C97.418 35.8533 97.8166 36.5832 97.9065 37.4926H96.2222C96.1661 37.0435 95.9303 36.6505 95.5149 36.3137C95.0994 35.9656 94.5493 35.7916 93.8643 35.7916C93.2243 35.7916 92.7022 35.96 92.298 36.2969C91.8938 36.6225 91.6917 37.0828 91.6917 37.6779C91.6917 38.1046 91.8096 38.4526 92.0454 38.7221C92.2924 38.9916 92.59 39.1993 92.938 39.3453C93.2973 39.48 93.797 39.6372 94.437 39.8169C95.2117 40.0302 95.8349 40.2435 96.3065 40.4569C96.778 40.659 97.1822 40.979 97.5191 41.4169C97.8559 41.8435 98.0243 42.4274 98.0243 43.1684C98.0243 43.7411 97.8728 44.28 97.5696 44.7853C97.2665 45.2905 96.8173 45.7004 96.2222 46.0147C95.6272 46.3291 94.9254 46.4863 94.117 46.4863Z" fill="black"/>
    <rect x="35.7893" y="3.94748" width="27.7895" height="27.7895" fill="#FAFF00"/>
    <path d="M19.5788 3.94748L35.6231 31.737H3.53455L19.5788 3.94748Z" fill="#FF0000"/>
    <circle cx="77.6843" cy="17.8422" r="13.8947" fill="#0038FF"/>
    <line x1="86.7959" y1="0.784719" x2="100.48" y2="31.311" stroke="white" stroke-width="1.05263"/>
</svg>